<svg width="68" height="68" viewBox="0 0 68 68" fill="none" xmlns="http://www.w3.org/2000/svg">
<g filter="url(#filter0_d_1211_652)">
<circle cx="25.9304" cy="25.9304" r="25.9304" transform="matrix(-1 0 0 1 59.8608 8)" fill="white"/>
</g>
<g clip-path="url(#clip0_1211_652)">
<path d="M29.134 27.8603L24.6279 27.0629L22.2332 40.5948L26.7393 41.3923L29.134 27.8603Z" fill="#3562D7"/>
<path d="M43.7034 31.7135C42.9397 30.5127 41.7792 29.7744 40.2227 29.499C39.6492 29.3975 39.1154 29.3758 38.6215 29.434C38.1278 29.4921 37.6968 29.62 37.3284 29.8177C36.9602 30.0154 36.661 30.2066 36.4314 30.3911C36.213 30.5664 35.9926 30.7766 35.7709 31.0193L36.1115 29.0951L31.6188 28.3L31.5165 28.958C31.4484 29.3967 31.2145 30.7447 30.815 33.0022C30.4155 35.2599 29.8852 38.2031 29.2242 41.8322L33.7166 42.6272L35.053 35.0759C35.1352 34.6117 35.2502 34.2519 35.3989 33.9963C35.6724 33.5657 36.03 33.2279 36.4726 32.9825C36.9153 32.7366 37.4232 32.6646 37.9969 32.7661C38.7795 32.9046 39.3076 33.2773 39.5805 33.8842C39.8532 34.4911 39.905 35.2725 39.7359 36.2284L38.4551 43.4654L42.9476 44.2604L44.3201 36.5049C44.6727 34.511 44.4674 32.914 43.7034 31.7135Z" fill="#3562D7"/>
<path d="M28.0608 20.9529C27.3053 20.8192 26.6541 20.9318 26.107 21.2902C25.56 21.6487 25.227 22.1646 25.1078 22.8384C24.9902 23.5028 25.1195 24.0986 25.4957 24.6251C25.8718 25.1516 26.4332 25.481 27.1797 25.6131L27.207 25.618C27.9717 25.7533 28.628 25.6395 29.1757 25.2763C29.7234 24.9133 30.0515 24.3987 30.1601 23.7326C30.2702 23.0572 30.1366 22.4587 29.7597 21.9366C29.3828 21.4145 28.8163 21.0866 28.0608 20.9529Z" fill="#3562D7"/>
</g>
<defs>
<filter id="filter0_d_1211_652" x="0.591305" y="0.591305" width="66.6782" height="66.6783" filterUnits="userSpaceOnUse" color-interpolation-filters="sRGB">
<feFlood flood-opacity="0" result="BackgroundImageFix"/>
<feColorMatrix in="SourceAlpha" type="matrix" values="0 0 0 0 0 0 0 0 0 0 0 0 0 0 0 0 0 0 127 0" result="hardAlpha"/>
<feOffset/>
<feGaussianBlur stdDeviation="3.70435"/>
<feComposite in2="hardAlpha" operator="out"/>
<feColorMatrix type="matrix" values="0 0 0 0 0 0 0 0 0 0 0 0 0 0 0 0 0 0 0.12 0"/>
<feBlend mode="normal" in2="BackgroundImageFix" result="effect1_dropShadow_1211_652"/>
<feBlend mode="normal" in="SourceGraphic" in2="effect1_dropShadow_1211_652" result="shape"/>
</filter>
<clipPath id="clip0_1211_652">
<rect width="21.3" height="21.3" fill="white" transform="translate(25.6035 20.0391) rotate(10.0358)"/>
</clipPath>
</defs>
</svg>
