<svg width="35" height="45" viewBox="0 0 35 45" fill="none" xmlns="http://www.w3.org/2000/svg">
<path d="M17.3348 0.959991C8.09217 0.959991 0.572754 8.05602 0.572754 16.7782C0.572754 27.6026 15.5731 43.4936 16.2118 44.1647C16.8117 44.7952 17.859 44.7942 18.4578 44.1647C19.0965 43.4936 34.0969 27.6026 34.0969 16.7782C34.0967 8.05602 26.5775 0.959991 17.3348 0.959991ZM17.3348 24.7367C12.6846 24.7367 8.9015 21.1665 8.9015 16.7782C8.9015 12.3898 12.6847 8.81969 17.3348 8.81969C21.9849 8.81969 25.7681 12.3899 25.7681 16.7782C25.7681 21.1666 21.9849 24.7367 17.3348 24.7367Z" fill="url(#paint0_linear_1115_492)"/>
<path fill-rule="evenodd" clip-rule="evenodd" d="M29.0745 30.4208C26.3188 31.0727 21.0914 32.2385 20.4956 32.0896C19.8827 31.9363 16.6004 30.4293 15.036 29.695L9.86367 26.5341L4.69138 25.2889L2.25416 24.0044C1.22118 21.4982 0.572754 19.0287 0.572754 16.7782C0.572754 8.05602 8.09217 0.959991 17.3348 0.959991C26.5775 0.959991 34.0967 8.05602 34.0969 16.7782C34.0969 20.9594 31.8586 25.8968 29.0745 30.4208ZM8.9015 16.7782C8.9015 21.1665 12.6846 24.7367 17.3348 24.7367C21.9849 24.7367 25.7681 21.1666 25.7681 16.7782C25.7681 12.3899 21.9849 8.81969 17.3348 8.81969C12.6847 8.81969 8.9015 12.3898 8.9015 16.7782Z" fill="url(#paint1_linear_1115_492)"/>
<path fill-rule="evenodd" clip-rule="evenodd" d="M29.8868 29.0608C20.5976 33.2185 16.3935 29.5848 12.3551 26.0944C9.32311 23.4738 6.38458 20.934 1.45752 21.8333C2.00927 23.5642 2.78759 25.3391 3.70164 27.0954C7.23708 26.6647 9.99676 28.3459 12.8285 30.0711C16.9871 32.6047 21.3011 35.2329 28.456 31.4056C28.9484 30.6368 29.4282 29.8532 29.8868 29.0608Z" fill="url(#paint2_linear_1115_492)"/>
<defs>
<linearGradient id="paint0_linear_1115_492" x1="17.3348" y1="0.959991" x2="17.3348" y2="44.6372" gradientUnits="userSpaceOnUse">
<stop stop-color="#028EB1"/>
<stop offset="1" stop-color="#48CFE5"/>
</linearGradient>
<linearGradient id="paint1_linear_1115_492" x1="8.0248" y1="0.959992" x2="24.6848" y2="31.095" gradientUnits="userSpaceOnUse">
<stop stop-color="#F33F5E"/>
<stop offset="1" stop-color="#FA8550"/>
</linearGradient>
<linearGradient id="paint2_linear_1115_492" x1="1.53061" y1="24.1395" x2="28.1584" y2="31.2275" gradientUnits="userSpaceOnUse">
<stop stop-color="#55DAF4"/>
<stop offset="1" stop-color="#36BED7"/>
</linearGradient>
</defs>
</svg>
