<svg width="60" height="60" viewBox="0 0 60 60" fill="none" xmlns="http://www.w3.org/2000/svg">
<path d="M35.9748 23.9502L23.7998 36.1252" stroke="#F33F5E" stroke-width="3" stroke-linecap="round" stroke-linejoin="round"/>
<path d="M22.2989 19.1504C20.5489 19.1504 19.1489 20.5754 19.1489 22.3004C19.1489 24.0504 20.5739 25.4504 22.2989 25.4504C24.0239 25.4504 25.4489 24.0254 25.4489 22.3004C25.4739 20.5754 24.0489 19.1504 22.2989 19.1504Z" fill="#F33F5E"/>
<path d="M37.6988 34.5264C35.9488 34.5264 34.5488 35.9514 34.5488 37.6764C34.5488 39.4264 35.9738 40.8264 37.6988 40.8264C39.4238 40.8264 40.8488 39.4014 40.8488 37.6764C40.8488 35.9514 39.4488 34.5264 37.6988 34.5264Z" fill="#F33F5E"/>
<path d="M51.1 39.5H51.075C52.375 36.6 53.125 33.375 53.125 30C53.125 17.225 42.775 6.875 30 6.875C17.225 6.875 6.875 17.225 6.875 30C6.875 42.775 17.225 53.125 30 53.125C33.775 53.125 37.35 52.2 40.5 50.6L53 52.45L51.1 39.5Z" stroke="url(#paint0_linear_31_334)" stroke-width="3" stroke-linecap="round" stroke-linejoin="round"/>
<defs>
<linearGradient id="paint0_linear_31_334" x1="6.875" y1="6.875" x2="61.224" y2="20.2742" gradientUnits="userSpaceOnUse">
<stop stop-color="#F33F5E"/>
<stop offset="1" stop-color="#FA8550"/>
</linearGradient>
</defs>
</svg>
